# xmcd
#
# Track frame offsets:
#	150
#	12975
#	36130
#	55850
#	70340
#	87925
#	107177
#	125407
#	148050
#	165587
#	184037
#	216837
#	236387
#	251255
#	271412
#	289325
#
# Disc length: 4395 seconds
#
# Revision: 1
# Processed by: cddbd v1.5.1PL0 Copyright (c) Steve Scherf et al.
# Submitted via: CDex 1.50Beta5
#
DISCID=e7112910
DTITLE=Various Artist - SCANCH'N MONDO SELECTION
DYEAR=1900
DGENRE=ROCK
TTITLE0=EASY LIVIN'
TTITLE1=想像されたウエスタンのテーマ
TTITLE2=赤いハイヒール
TTITLE3=土曜日の誘惑
TTITLE4=ローリー寺西/そら豆の詩
TTITLE5=SURRENDER
TTITLE6=JOHNNY B
TTITLE7=AFRICA
TTITLE8=NEVER IN MY LIFE
TTITLE9=It Must Be Love
TTITLE10=珍奇男
TTITLE11=FISHBONE/SUNLESS SATURDAY
TTITLE12=YOU LOVE US(EDIT)
TTITLE13=電気とミント
TTITLE14=BANGLES/胸いっぱいの愛
TTITLE15=かくれんぼ〜はいからはくち
EXTD=
EXTT0=
EXTT1=
EXTT2=
EXTT3=
EXTT4=
EXTT5=
EXTT6=
EXTT7=
EXTT8=
EXTT9=
EXTT10=
EXTT11=
EXTT12=
EXTT13=
EXTT14=
EXTT15=
PLAYORDER=
